<?xml version="1.0" standalone="no"?>
<!DOCTYPE svg PUBLIC "-//W3C//DTD SVG 20010904//EN"
 "http://www.w3.org/TR/2001/REC-SVG-20010904/DTD/svg10.dtd">
<svg version="1.0" xmlns="http://www.w3.org/2000/svg"
 width="1148.000000pt" height="1148.000000pt" viewBox="0 0 1148.000000 1148.000000"
 preserveAspectRatio="xMidYMid meet">
<metadata>
Created by potrace 1.11, written by Peter Selinger 2001-2013
</metadata>
<g transform="translate(0.000000,1148.000000) scale(0.100000,-0.100000)"
fill="#000000" stroke="none">
<path d="M10 5740 l0 -3150 5735 0 5735 0 0 3150 0 3150 -5735 0 -5735 0 0
-3150z m9300 2954 c422 -48 794 -180 1080 -382 144 -101 349 -311 443 -452
136 -205 235 -442 291 -690 92 -414 169 -933 236 -1583 46 -454 8 -740 -140
-1042 -253 -515 -827 -834 -1630 -904 -195 -17 -2930 -185 -2935 -180 -2 3
-43 279 -90 614 -47 336 -110 783 -140 995 -30 212 -73 516 -95 675 -22 160
-65 463 -95 675 -87 619 -242 1719 -271 1923 -14 104 -24 190 -21 193 2 3 69
9 148 14 141 10 2269 141 2649 164 113 6 440 -5 570 -20z m-5085 -233 c390
-70 670 -217 857 -450 177 -221 251 -471 294 -993 17 -208 13 -298 -16 -415
-57 -222 -218 -382 -465 -463 l-70 -23 111 -23 c163 -33 242 -59 362 -119 120
-60 189 -109 276 -193 225 -219 299 -434 361 -1042 31 -302 16 -485 -54 -665
-158 -408 -618 -672 -1271 -730 -91 -8 -329 -21 -530 -30 -341 -15 -690 -31
-1195 -55 -115 -6 -356 -17 -535 -25 -461 -21 -970 -45 -1138 -53 -79 -4 -146
-4 -148 -1 -2 4 -130 1018 -284 2255 -154 1237 -299 2395 -321 2572 -22 178
-39 325 -37 327 3 2 263 15 1773 85 358 17 817 39 1020 49 485 25 841 22 1010
-8z"/>
<path d="M8440 7519 c-69 -4 -280 -18 -470 -29 -190 -12 -350 -23 -356 -25 -7
-2 -2 -62 17 -192 15 -103 103 -719 194 -1368 92 -649 168 -1181 170 -1183 5
-5 1005 58 1082 69 117 16 238 47 333 86 293 120 411 348 380 736 -31 386
-110 919 -182 1232 -40 172 -103 295 -207 407 -146 157 -348 243 -622 268
-126 11 -157 11 -339 -1z"/>
<path d="M3185 7303 c-38 -2 -308 -14 -599 -28 -290 -13 -529 -25 -531 -27 -1
-2 10 -100 25 -218 16 -118 42 -323 59 -455 17 -132 33 -255 36 -274 l6 -33
102 6 c56 3 325 15 597 26 600 24 636 26 716 45 221 51 296 179 266 453 -33
293 -116 422 -314 483 -64 20 -228 30 -363 22z"/>
<path d="M3660 5543 c-313 -13 -1384 -63 -1386 -65 -1 -2 11 -102 27 -223 16
-121 46 -359 69 -529 22 -170 42 -311 44 -313 3 -3 353 11 778 31 815 37 836
39 938 91 63 32 123 100 150 171 20 55 22 71 17 219 -4 121 -10 178 -26 232
-90 312 -231 401 -611 386z"/>
</g>
</svg>
