<svg xmlns="http://www.w3.org/2000/svg" xmlns:xlink="http://www.w3.org/1999/xlink" width="708.266" height="371.346" viewBox="0 0 708.266 371.346"><defs><clipPath id="a"><path d="M761.875,402.77l10.156-12.412c2.532-3.1,8.138-5.194,18.007-5.65,16.959-.785,23.479,3.673,26.719,15.014L806.6,412.135c-3.24-11.342-9.76-15.8-26.719-15.015C770.013,397.576,764.407,399.676,761.875,402.77Z"/></clipPath><clipPath id="b"><path d="M822.486,454.661,812.33,467.073c1.417-1.732,1.817-3.891,1.488-6.52-1.143-9.139-6.594-11.681-39.81-15.064-37.088-3.867-50.578-16.379-53.313-38.245a26.969,26.969,0,0,1,5.809-21.1l10.156-12.412a26.969,26.969,0,0,0-5.809,21.1c2.735,21.866,16.225,34.378,53.313,38.244,33.216,3.384,38.667,5.926,39.81,15.065C824.3,450.769,823.9,452.929,822.486,454.661Z"/></clipPath><clipPath id="c"><path d="M858.091,471.152l-10.156,12.412c-8.835,10.8-26.588,16.529-52.211,17.714-43.964,2.034-64.141-10.984-71.456-42.987l10.156-12.412c7.316,32,27.492,45.02,71.457,42.987C831.5,487.681,849.256,481.95,858.091,471.152Z" fill="none"/></clipPath><clipPath id="d"><path d="M310.894,435.088,300.738,447.5a18.635,18.635,0,0,1-10.647,6.086l10.156-12.412A18.643,18.643,0,0,0,310.894,435.088Z"/></clipPath><clipPath id="e"><path d="M275.074,417.391,264.918,429.8c-2.033-4.338-5.92-6.3-13-5.97l10.156-12.412C269.154,411.093,273.041,413.053,275.074,417.391Z"/></clipPath><clipPath id="f"><path d="M276.564,429.3l-10.156,12.412a27.451,27.451,0,0,0-.078-5.906,21.921,21.921,0,0,0-1.412-6l10.156-12.412a21.912,21.912,0,0,1,1.412,6A27.388,27.388,0,0,1,276.564,429.3Z"/></clipPath><clipPath id="g"><path d="M275.086,432.722,264.93,445.134a7.326,7.326,0,0,0,1.478-3.421L276.564,429.3A7.326,7.326,0,0,1,275.086,432.722Z"/></clipPath><clipPath id="h"><path d="M287.577,473.606l-10.156,12.412a24.989,24.989,0,0,0-.184-5.4,25.541,25.541,0,0,0-1.351-5.52c-1.975-5.163-5.266-7.638-13.822-7.242l10.156-12.412c8.556-.4,11.847,2.079,13.822,7.242a25.547,25.547,0,0,1,1.351,5.519A25,25,0,0,1,287.577,473.606Z"/></clipPath><clipPath id="i"><path d="M285.844,478.7l-10.156,12.412a8.35,8.35,0,0,0,1.733-5.09l10.156-12.412A8.35,8.35,0,0,1,285.844,478.7Z"/></clipPath><clipPath id="j"><path d="M323.423,498.436l-10.156,12.413c-6.289,7.686-17.573,11.753-31.358,12.39l10.156-12.412C305.85,510.189,317.134,506.122,323.423,498.436Z"/></clipPath><clipPath id="k"><path d="M837.218,572.374l-10.156,12.412c-3.889-9.07-11.9-12.061-22.025-11.593l10.156-12.412C825.319,560.312,833.33,563.3,837.218,572.374Z"/></clipPath><clipPath id="l"><path d="M839.864,590.125l-10.156,12.412c-.05-2.1-.308-5.873-.649-8.594a45.5,45.5,0,0,0-2-9.157l10.156-12.412a45.487,45.487,0,0,1,2,9.157C839.556,584.252,839.814,588.024,839.864,590.125Z"/></clipPath><clipPath id="m"><path d="M836.887,598.711l-10.156,12.412a13.933,13.933,0,0,0,2.977-8.586l10.156-12.412A13.933,13.933,0,0,1,836.887,598.711Z"/></clipPath><clipPath id="n"><path d="M879.889,618.556l-10.156,12.412c-8.411,10.28-22.587,15.208-40.388,16.154L839.5,634.709C857.3,633.764,871.478,628.835,879.889,618.556Z"/></clipPath><clipPath id="o"><path d="M839.5,634.709l-10.156,12.413c-9.7.448-49.995,2.112-52.116,2.2l10.156-12.412C789.506,636.821,829.8,635.158,839.5,634.709Z"/></clipPath><clipPath id="p"><path d="M330.187,607.6l-10.156,12.412c-2.852-16.053-14.341-24.771-35.637-23.786l10.156-12.412C315.847,582.83,327.335,591.548,330.187,607.6Z"/></clipPath><clipPath id="q"><path d="M335.21,646.049l-10.156,12.412c-.258-3.765-1.325-15.7-1.77-19.254s-2.675-16.28-3.253-19.194L330.187,607.6c.578,2.914,2.809,15.641,3.253,19.193S334.952,642.284,335.21,646.049Z"/></clipPath><clipPath id="r"><path d="M330.9,664.4l-10.156,12.413c3.6-4.4,4.917-10.469,4.309-18.351l10.156-12.412C335.818,653.931,334.5,660.005,330.9,664.4Z"/></clipPath><clipPath id="s"><path d="M375.979,689.728l-10.156,12.413c-10.4,12.715-28.158,19.859-51.775,20.951L324.2,710.68C347.821,709.588,365.575,702.444,375.979,689.728Z"/></clipPath></defs><g transform="translate(-180.129 -356)"><g style="isolation:isolate"><path d="M853.808,398.009l-10.156,12.412-37.05,1.714,10.156-12.412Z"/><g style="isolation:isolate"><path d="M761.875,402.77l10.156-12.412c2.532-3.1,8.138-5.194,18.007-5.65,16.959-.785,23.479,3.673,26.719,15.014L806.6,412.135c-3.24-11.342-9.76-15.8-26.719-15.015C770.013,397.576,764.407,399.676,761.875,402.77Z"/><g clip-path="url(#a)"><g style="isolation:isolate"><path d="M816.757,399.722,806.6,412.135c-3.24-11.342-9.76-15.8-26.719-15.015-9.869.456-15.475,2.556-18.007,5.65l10.156-12.412c2.532-3.1,8.138-5.194,18.007-5.65,16.959-.785,23.479,3.673,26.719,15.014"/></g></g></g><g style="isolation:isolate"><path d="M822.486,454.661,812.33,467.073c1.417-1.732,1.817-3.891,1.488-6.52-1.143-9.139-6.594-11.681-39.81-15.064-37.088-3.867-50.578-16.379-53.313-38.245a26.969,26.969,0,0,1,5.809-21.1l10.156-12.412a26.969,26.969,0,0,0-5.809,21.1c2.735,21.866,16.225,34.378,53.313,38.244,33.216,3.384,38.667,5.926,39.81,15.065C824.3,450.769,823.9,452.929,822.486,454.661Z"/><g clip-path="url(#b)"><g style="isolation:isolate"><path d="M822.486,454.661,812.33,467.073c1.417-1.732,1.817-3.891,1.488-6.52-1.143-9.139-6.594-11.681-39.81-15.064-37.088-3.867-50.578-16.379-53.313-38.245a26.969,26.969,0,0,1,5.809-21.1l10.156-12.412a26.969,26.969,0,0,0-5.809,21.1c2.735,21.866,16.225,34.378,53.313,38.244,33.216,3.384,38.667,5.926,39.81,15.065.329,2.628-.071,4.788-1.488,6.52"/></g></g></g><g style="isolation:isolate"><g clip-path="url(#c)"><g style="isolation:isolate"><path d="M858.091,471.152l-10.156,12.412c-8.835,10.8-26.588,16.529-52.211,17.714-43.964,2.034-64.141-10.984-71.456-42.987l10.156-12.412c7.316,32,27.492,45.02,71.457,42.987,25.622-1.185,43.375-6.916,52.21-17.714"/></g></g></g><path d="M785.968,356.164c40.014-1.851,61.615,11.924,67.84,41.845l-37.051,1.713c-3.24-11.341-9.76-15.8-26.719-15.014-15.317.708-20.365,5.374-19.589,11.575s6.2,11.2,36.481,13.573c40.816,3.206,54.43,14.068,57.247,36.585,3.39,27.1-17.457,40.536-58.3,42.425-43.965,2.033-64.141-10.984-71.457-42.987l37.54-1.737c3.53,12.311,15.5,16.684,30.323,16,17.624-.815,22.626-4.5,21.687-12-1.143-9.139-6.594-11.681-39.81-15.065-37.088-3.866-50.578-16.378-53.313-38.244C728.319,374.594,744.639,358.076,785.968,356.164Z" fill="#f5f5f5"/></g><g style="isolation:isolate"><path d="M641.968,364.8l12.169,97.269,64.223-2.971,3.982,31.83-102.924,4.761-16.15-129.1Z" fill="#f5f5f5"/><path d="M722.341,490.925l-10.156,12.412L609.261,508.1l10.156-12.412Z"/><path d="M619.417,495.686,609.261,508.1,593.111,379l10.156-12.412Z"/></g><g style="isolation:isolate"><path d="M519.456,370.464l12.168,97.269,64.223-2.971,3.982,31.83-102.924,4.761-16.15-129.1Z" fill="#f5f5f5"/><path d="M599.83,496.592,589.673,509,486.75,513.765l10.156-12.412Z"/><path d="M496.906,501.352,486.75,513.765l-16.15-129.1,10.156-12.412Z"/></g><g style="isolation:isolate"><path d="M418.589,465.742l-10.156,12.412-22.617-41.8,10.156-12.412Z"/><path d="M478.472,502.2l-10.156,12.412L427.8,516.491l10.156-12.412Z"/><path d="M437.96,504.079,427.8,516.491l-9.119-17.306,10.156-12.412Z"/><path d="M428.842,486.772l-10.156,12.412-49.732,2.3,10.156-12.412Z"/><path d="M409.457,375.552,478.472,502.2l-40.512,1.874-9.118-17.307-49.732,2.3-4.548,17.938-38.2,1.767,36.706-131.543ZM384.5,467.318l34.087-1.576-22.617-41.8L384.5,467.318" fill="#f5f5f5"/><path d="M374.562,507.011l-10.156,12.412-38.2,1.767,10.156-12.412Z"/><path d="M336.358,508.778,326.2,521.19l36.706-131.543,10.156-12.412Z"/></g><g style="isolation:isolate"><g style="isolation:isolate"><path d="M310.894,435.088,300.738,447.5a18.635,18.635,0,0,1-10.647,6.086l10.156-12.412A18.643,18.643,0,0,0,310.894,435.088Z"/><g clip-path="url(#d)"><g style="isolation:isolate"><path d="M310.894,435.088,300.738,447.5a18.635,18.635,0,0,1-10.647,6.086l10.156-12.412a18.643,18.643,0,0,0,10.647-6.086"/></g></g></g><g style="isolation:isolate"><path d="M275.074,417.391,264.918,429.8c-2.033-4.338-5.92-6.3-13-5.97l10.156-12.412C269.154,411.093,273.041,413.053,275.074,417.391Z"/><g clip-path="url(#e)"><g style="isolation:isolate"><path d="M275.074,417.391,264.918,429.8c-2.033-4.338-5.92-6.3-13-5.97l10.156-12.412c7.082-.328,10.969,1.632,13,5.97"/></g></g></g><g style="isolation:isolate"><path d="M276.564,429.3l-10.156,12.412a27.451,27.451,0,0,0-.078-5.906,21.921,21.921,0,0,0-1.412-6l10.156-12.412a21.912,21.912,0,0,1,1.412,6A27.388,27.388,0,0,1,276.564,429.3Z"/><g clip-path="url(#f)"><g style="isolation:isolate"><path d="M276.564,429.3l-10.156,12.412a27.451,27.451,0,0,0-.078-5.906,21.921,21.921,0,0,0-1.412-6l10.156-12.412a21.912,21.912,0,0,1,1.412,6,27.388,27.388,0,0,1,.078,5.906"/></g></g></g><g style="isolation:isolate"><path d="M275.086,432.722,264.93,445.134a7.326,7.326,0,0,0,1.478-3.421L276.564,429.3A7.326,7.326,0,0,1,275.086,432.722Z"/><g clip-path="url(#g)"><g style="isolation:isolate"><path d="M275.086,432.722,264.93,445.134a7.326,7.326,0,0,0,1.478-3.421L276.564,429.3a7.326,7.326,0,0,1-1.478,3.421"/></g></g></g><path d="M262.072,411.421l-10.156,12.412-30.794,1.424,10.156-12.412Z"/><g style="isolation:isolate"><path d="M287.577,473.606l-10.156,12.412a24.989,24.989,0,0,0-.184-5.4,25.541,25.541,0,0,0-1.351-5.52c-1.975-5.163-5.266-7.638-13.822-7.242l10.156-12.412c8.556-.4,11.847,2.079,13.822,7.242a25.547,25.547,0,0,1,1.351,5.519A25,25,0,0,1,287.577,473.606Z"/><g clip-path="url(#h)"><g style="isolation:isolate"><path d="M287.577,473.606l-10.156,12.412a24.989,24.989,0,0,0-.184-5.4,25.541,25.541,0,0,0-1.351-5.52c-1.975-5.163-5.266-7.638-13.822-7.242l10.156-12.412c8.556-.4,11.847,2.079,13.822,7.242a25.547,25.547,0,0,1,1.351,5.519,25,25,0,0,1,.184,5.406"/></g></g></g><g style="isolation:isolate"><path d="M285.844,478.7l-10.156,12.412a8.35,8.35,0,0,0,1.733-5.09l10.156-12.412A8.35,8.35,0,0,1,285.844,478.7Z"/><g clip-path="url(#i)"><g style="isolation:isolate"><path d="M285.844,478.7l-10.156,12.412a8.35,8.35,0,0,0,1.733-5.09l10.156-12.412a8.35,8.35,0,0,1-1.733,5.09"/></g></g></g><path d="M272.22,455.439l-10.156,12.412-35.408,1.638,10.156-12.412Z"/><g style="isolation:isolate"><path d="M323.423,498.436l-10.156,12.413c-6.289,7.686-17.573,11.753-31.358,12.39l10.156-12.412C305.85,510.189,317.134,506.122,323.423,498.436Z"/><g clip-path="url(#j)"><g style="isolation:isolate"><path d="M323.423,498.436l-10.156,12.413c-6.289,7.686-17.573,11.753-31.358,12.39l10.156-12.412c13.785-.638,25.069-4.7,31.358-12.391"/></g></g></g><path d="M326.449,462.617c.406,1.953.961,5.042,1.369,8.306.429,3.429.691,6.867.935,8.82,1.505,19.958-14.29,30.048-36.688,31.084l-85.629,3.961-16.15-129.1,81.343-3.762c25.859-1.2,38.171,9.886,40.961,24.2.427,2.12.962,5.05,1.33,7.988.346,2.771.526,5.557.59,7.359.81,10.464-4.281,17.431-14.263,19.7C314.548,442.972,323.965,450.746,326.449,462.617Zm-38.872,10.989a25,25,0,0,0-.184-5.406,25.547,25.547,0,0,0-1.351-5.519c-1.975-5.163-5.266-7.638-13.822-7.242l-35.408,1.638,3.369,26.93,35.568-1.645c8.732-.4,11.616-3.819,11.828-8.756m-56.3-60.761,3.083,24.645,30.794-1.425c7.578-.35,10.627-2.456,11.409-6.764a27.388,27.388,0,0,0-.078-5.906,21.912,21.912,0,0,0-1.412-6c-2.033-4.338-5.92-6.3-13-5.97l-30.794,1.424" fill="#f5f5f5"/><path d="M206.436,514.788,196.28,527.2l-16.15-129.1,10.156-12.412Z"/><path d="M292.065,510.827l-10.156,12.412L196.28,527.2l10.156-12.412Z"/></g><g style="isolation:isolate"><g style="isolation:isolate"><path d="M837.218,572.374l-10.156,12.412c-3.889-9.07-11.9-12.061-22.025-11.593l10.156-12.412C825.319,560.312,833.33,563.3,837.218,572.374Z"/><g clip-path="url(#k)"><g style="isolation:isolate"><path d="M837.218,572.374l-10.156,12.412c-3.889-9.07-11.9-12.061-22.025-11.593l10.156-12.412c10.126-.469,18.137,2.523,22.025,11.593"/></g></g></g><g style="isolation:isolate"><path d="M839.864,590.125l-10.156,12.412c-.05-2.1-.308-5.873-.649-8.594a45.5,45.5,0,0,0-2-9.157l10.156-12.412a45.487,45.487,0,0,1,2,9.157C839.556,584.252,839.814,588.024,839.864,590.125Z"/><g clip-path="url(#l)"><g style="isolation:isolate"><path d="M839.864,590.125l-10.156,12.412c-.05-2.1-.308-5.873-.649-8.594a45.5,45.5,0,0,0-2-9.157l10.156-12.412a45.487,45.487,0,0,1,2,9.157c.341,2.721.6,6.493.649,8.594"/></g></g></g><g style="isolation:isolate"><path d="M836.887,598.711l-10.156,12.412a13.933,13.933,0,0,0,2.977-8.586l10.156-12.412A13.933,13.933,0,0,1,836.887,598.711Z"/><g clip-path="url(#m)"><g style="isolation:isolate"><path d="M836.887,598.711l-10.156,12.412a13.933,13.933,0,0,0,2.977-8.586l10.156-12.412a13.933,13.933,0,0,1-2.977,8.586"/></g></g></g><path d="M815.193,560.781l-10.156,12.412L767.92,574.91,778.076,562.5Z"/><g style="isolation:isolate"><path d="M879.889,618.556l-10.156,12.412c-8.411,10.28-22.587,15.208-40.388,16.154L839.5,634.709C857.3,633.764,871.478,628.835,879.889,618.556Z"/><g clip-path="url(#n)"><g style="isolation:isolate"><path d="M879.889,618.556l-10.156,12.412c-8.411,10.28-22.587,15.208-40.388,16.154L839.5,634.709c17.8-.945,31.977-5.874,40.388-16.153"/></g></g></g><g style="isolation:isolate"><path d="M839.5,634.709l-10.156,12.413c-9.7.448-49.995,2.112-52.116,2.2l10.156-12.412C789.506,636.821,829.8,635.158,839.5,634.709Z"/><g clip-path="url(#o)"><g style="isolation:isolate"><path d="M839.5,634.709l-10.156,12.413c-9.7.448-49.995,2.112-52.116,2.2l10.156-12.412c2.121-.088,42.414-1.751,52.116-2.2"/></g></g></g><path d="M744.756,691.228,734.6,703.64,713.916,538.305l10.156-12.412Z"/><path d="M793.9,688.955,783.74,701.367,734.6,703.64l10.156-12.412Z"/><path d="M885.31,563.425c.526,2.5,1.1,7.1,1.65,11.488.6,4.8,1.2,9.616,1.3,12.129,1.943,32.5-18,46.033-48.764,47.667-9.7.449-49.995,2.112-52.116,2.2l6.511,52.046-49.14,2.273L724.072,525.893l98.069-4.536C859.258,519.64,880.569,535.684,885.31,563.425Zm-45.446,26.7c-.05-2.1-.308-5.873-.649-8.594a45.487,45.487,0,0,0-2-9.157c-3.888-9.07-11.9-12.062-22.025-11.593L778.076,562.5l5.492,43.9,38.8-1.795c8.644-.4,17.114-3.95,17.493-14.476" fill="#f5f5f5"/></g><g style="isolation:isolate"><path d="M705.5,565.644l-10.156,12.412-92.8,4.292L612.7,569.936Z"/><path d="M708.811,624.358,698.655,636.77l-88.79,4.107,10.156-12.412Z"/><path d="M700.659,526.976l4.837,38.667-92.8,4.292,3.609,28.849,88.79-4.107,3.713,29.681-88.79,4.107,3.687,29.471,93.849-4.341,4.837,38.667L580.04,698.847,559.356,533.512Z" fill="#f5f5f5"/><path d="M722.394,692.262l-10.156,12.412-142.354,6.584,10.156-12.412Z"/><path d="M580.04,698.847l-10.156,12.412L549.2,545.924l10.156-12.412Z"/></g><g style="isolation:isolate"><path d="M542.255,573.194,532.1,585.606,439.3,589.9l10.156-12.412Z"/><path d="M545.569,631.909l-10.156,12.412-88.79,4.107,10.156-12.412Z"/><path d="M537.418,534.527l4.837,38.667-92.8,4.292,3.609,28.849,88.79-4.107,3.713,29.681-88.79,4.107,3.687,29.471,93.85-4.341,4.837,38.667L416.8,706.4,396.114,541.063Z" fill="#f5f5f5"/><path d="M559.153,699.813,549,712.225,406.642,718.81,416.8,706.4Z"/><path d="M416.8,706.4,406.642,718.81,385.958,553.475l10.156-12.412Z"/></g><g style="isolation:isolate"><g style="isolation:isolate"><path d="M330.187,607.6l-10.156,12.412c-2.852-16.053-14.341-24.771-35.637-23.786l10.156-12.412C315.847,582.83,327.335,591.548,330.187,607.6Z"/><g clip-path="url(#p)"><g style="isolation:isolate"><path d="M330.187,607.6l-10.156,12.412c-2.852-16.053-14.341-24.771-35.637-23.786l10.156-12.412c21.3-.985,32.785,7.733,35.637,23.786"/></g></g></g><path d="M294.55,583.815l-10.156,12.412-29.531,1.366,10.156-12.412Z"/><g style="isolation:isolate"><path d="M335.21,646.049l-10.156,12.412c-.258-3.765-1.325-15.7-1.77-19.254s-2.675-16.28-3.253-19.194L330.187,607.6c.578,2.914,2.809,15.641,3.253,19.193S334.952,642.284,335.21,646.049Z"/><g clip-path="url(#q)"><g style="isolation:isolate"><path d="M335.21,646.049l-10.156,12.412c-.258-3.765-1.325-15.7-1.77-19.254s-2.675-16.28-3.253-19.194L330.187,607.6c.578,2.914,2.809,15.641,3.253,19.193s1.512,15.49,1.77,19.255"/></g></g></g><g style="isolation:isolate"><path d="M330.9,664.4l-10.156,12.413c3.6-4.4,4.917-10.469,4.309-18.351l10.156-12.412C335.818,653.931,334.5,660.005,330.9,664.4Z"/><g clip-path="url(#r)"><g style="isolation:isolate"><path d="M330.9,664.4l-10.156,12.413c3.6-4.4,4.917-10.469,4.309-18.351l10.156-12.412c.608,7.882-.713,13.956-4.309,18.35"/></g></g></g><g style="isolation:isolate"><path d="M375.979,689.728l-10.156,12.413c-10.4,12.715-28.158,19.859-51.775,20.951L324.2,710.68C347.821,709.588,365.575,702.444,375.979,689.728Z"/><g clip-path="url(#s)"><g style="isolation:isolate"><path d="M375.979,689.728l-10.156,12.413c-10.4,12.715-28.158,19.859-51.775,20.951L324.2,710.68c23.617-1.092,41.371-8.236,51.775-20.952"/></g></g></g><path d="M232.253,714.933,222.1,727.346,201.413,562.011,211.569,549.6Z"/><path d="M324.2,710.68l-10.156,12.412L222.1,727.346l10.156-12.412Z"/><path d="M379.5,598.174c1.418,7.925,2.985,17.1,3.873,24.208s2.408,22.594,2.85,27.828c3.411,37.474-20.045,58.529-62.016,60.47l-91.951,4.253L211.569,549.6l88.155-4.078C345.7,543.394,373.072,563.779,379.5,598.174ZM335.21,646.049c-.258-3.765-1.325-15.7-1.77-19.255s-2.675-16.279-3.253-19.193c-2.852-16.053-14.34-24.771-35.637-23.786l-29.531,1.365,11.192,89.462,30.371-1.405c21.726-1.005,29.985-9.588,28.628-27.188" fill="#f5f5f5"/></g></g></svg>