<?xml version="1.0" encoding="utf-8"?>
<!-- Generator: Adobe Illustrator 24.0.2, SVG Export Plug-In . SVG Version: 6.00 Build 0)  -->
<svg version="1.1" id="Layer_1" xmlns="http://www.w3.org/2000/svg" xmlns:xlink="http://www.w3.org/1999/xlink" x="0px" y="0px"
	 viewBox="0 0 287 157.6" style="enable-background:new 0 0 287 157.6;" xml:space="preserve">
<style type="text/css">
	.st0{fill:#FF1D25;}
	.st1{clip-path:url(#SVGID_2_);}
	.st2{clip-path:url(#SVGID_4_);}
	.st3{clip-path:url(#SVGID_6_);}
	.st4{clip-path:url(#SVGID_8_);}
	.st5{clip-path:url(#SVGID_10_);}
	.st6{clip-path:url(#SVGID_12_);}
	.st7{clip-path:url(#SVGID_14_);}
	.st8{fill:#F5F5F5;}
	.st9{clip-path:url(#SVGID_16_);}
	.st10{clip-path:url(#SVGID_18_);}
	.st11{clip-path:url(#SVGID_20_);}
	.st12{clip-path:url(#SVGID_22_);}
</style>
<rect x="0" class="st0" width="287" height="157.6"/>
<g>
	<g>
		<path d="M130.8,63.3l-10.2,12.4c-2.8,3.2-6.5,5.3-10.6,6.1l10.2-12.4C124.3,68.6,128,66.5,130.8,63.3z"/>
		<g>
			<defs>
				<path id="SVGID_1_" d="M130.8,63.3l-10.2,12.4c-2.8,3.2-6.5,5.3-10.6,6.1l10.2-12.4C124.3,68.6,128,66.5,130.8,63.3z"/>
			</defs>
			<clipPath id="SVGID_2_">
				<use xlink:href="#SVGID_1_"  style="overflow:visible;"/>
			</clipPath>
			<g class="st1">
				<g>
					<path d="M130.8,63.3l-10.2,12.4c-2.8,3.2-6.5,5.3-10.6,6.1l10.2-12.4C124.3,68.6,128,66.5,130.8,63.3"/>
				</g>
			</g>
		</g>
	</g>
	<g>
		<path d="M94.9,45.6L84.8,58c-2-4.3-5.9-6.3-13-6l10.2-12.4C89,39.3,92.9,41.3,94.9,45.6z"/>
		<g>
			<defs>
				<path id="SVGID_3_" d="M94.9,45.6L84.8,58c-2-4.3-5.9-6.3-13-6l10.2-12.4C89,39.3,92.9,41.3,94.9,45.6z"/>
			</defs>
			<clipPath id="SVGID_4_">
				<use xlink:href="#SVGID_3_"  style="overflow:visible;"/>
			</clipPath>
			<g class="st2">
				<g>
					<path d="M94.9,45.6L84.8,58c-2-4.3-5.9-6.3-13-6l10.2-12.4C89,39.3,92.9,41.2,94.9,45.6"/>
				</g>
			</g>
		</g>
	</g>
	<g>
		<path d="M96.4,57.5L86.3,69.9c0.2-2,0.2-3.9-0.1-5.9c-0.2-2.1-0.7-4.1-1.4-6l10.2-12.4c0.8,1.9,1.2,3.9,1.4,6
			C96.6,53.6,96.6,55.5,96.4,57.5z"/>
		<g>
			<defs>
				<path id="SVGID_5_" d="M96.4,57.5L86.3,69.9c0.2-2,0.2-3.9-0.1-5.9c-0.2-2.1-0.7-4.1-1.4-6l10.2-12.4c0.8,1.9,1.2,3.9,1.4,6
					C96.6,53.6,96.6,55.5,96.4,57.5z"/>
			</defs>
			<clipPath id="SVGID_6_">
				<use xlink:href="#SVGID_5_"  style="overflow:visible;"/>
			</clipPath>
			<g class="st3">
				<g>
					<path d="M96.4,57.5L86.3,69.9c0.2-2,0.2-3.9-0.1-5.9c-0.2-2.1-0.7-4.1-1.4-6l10.2-12.4c0.8,1.9,1.2,3.9,1.4,6
						C96.6,53.6,96.6,55.5,96.4,57.5"/>
				</g>
			</g>
		</g>
	</g>
	<g>
		<path d="M95,60.9L84.8,73.3c0.8-1,1.3-2.2,1.5-3.4l10.2-12.4C96.2,58.7,95.7,59.9,95,60.9z"/>
		<g>
			<defs>
				<path id="SVGID_7_" d="M95,60.9L84.8,73.3c0.8-1,1.3-2.2,1.5-3.4l10.2-12.4C96.2,58.7,95.7,59.9,95,60.9z"/>
			</defs>
			<clipPath id="SVGID_8_">
				<use xlink:href="#SVGID_7_"  style="overflow:visible;"/>
			</clipPath>
			<g class="st4">
				<g>
					<path d="M95,60.9L84.8,73.3c0.8-1,1.3-2.2,1.5-3.4l10.2-12.4C96.2,58.7,95.7,59.9,95,60.9"/>
				</g>
			</g>
		</g>
	</g>
	<path d="M81.9,39.6L71.8,52L41,53.5L51.1,41L81.9,39.6z"/>
	<g>
		<path d="M107.4,101.8l-10.2,12.4c0.1-1.8,0.1-3.6-0.2-5.4c-0.2-1.9-0.7-3.7-1.4-5.5c-2-5.2-5.3-7.6-13.8-7.2l10.2-12.4
			c8.6-0.4,11.8,2.1,13.8,7.2c0.7,1.8,1.1,3.6,1.4,5.5C107.5,98.2,107.6,100,107.4,101.8z"/>
		<g>
			<defs>
				<path id="SVGID_9_" d="M107.4,101.8l-10.2,12.4c0.1-1.8,0.1-3.6-0.2-5.4c-0.2-1.9-0.7-3.7-1.4-5.5c-2-5.2-5.3-7.6-13.8-7.2
					l10.2-12.4c8.6-0.4,11.8,2.1,13.8,7.2c0.7,1.8,1.1,3.6,1.4,5.5C107.5,98.2,107.6,100,107.4,101.8z"/>
			</defs>
			<clipPath id="SVGID_10_">
				<use xlink:href="#SVGID_9_"  style="overflow:visible;"/>
			</clipPath>
			<g class="st5">
				<g>
					<path d="M107.4,101.8l-10.2,12.4c0.1-1.8,0.1-3.6-0.2-5.4c-0.2-1.9-0.7-3.7-1.4-5.5c-2-5.2-5.3-7.6-13.8-7.2l10.2-12.4
						c8.6-0.4,11.8,2.1,13.8,7.2c0.7,1.8,1.1,3.6,1.4,5.5C107.5,98.2,107.6,100,107.4,101.8"/>
				</g>
			</g>
		</g>
	</g>
	<g>
		<path d="M105.7,106.9l-10.2,12.4c1.1-1.5,1.7-3.2,1.7-5.1l10.2-12.4C107.4,103.7,106.8,105.4,105.7,106.9z"/>
		<g>
			<defs>
				<path id="SVGID_11_" d="M105.7,106.9l-10.2,12.4c1.1-1.5,1.7-3.2,1.7-5.1l10.2-12.4C107.4,103.7,106.8,105.4,105.7,106.9z"/>
			</defs>
			<clipPath id="SVGID_12_">
				<use xlink:href="#SVGID_11_"  style="overflow:visible;"/>
			</clipPath>
			<g class="st6">
				<g>
					<path d="M105.7,106.9l-10.2,12.4c1.1-1.5,1.7-3.2,1.7-5.1l10.2-12.4C107.4,103.7,106.8,105.4,105.7,106.9"/>
				</g>
			</g>
		</g>
	</g>
	<path d="M92.1,83.6L81.9,96.1l-35.4,1.6l10.2-12.4L92.1,83.6z"/>
	<g>
		<path d="M143.3,126.6L133.1,139c-6.3,7.7-17.6,11.8-31.4,12.4l10.2-12.4C125.7,138.4,137,134.3,143.3,126.6z"/>
		<g>
			<defs>
				<path id="SVGID_13_" d="M143.3,126.6L133.1,139c-6.3,7.7-17.6,11.8-31.4,12.4l10.2-12.4C125.7,138.4,137,134.3,143.3,126.6z"/>
			</defs>
			<clipPath id="SVGID_14_">
				<use xlink:href="#SVGID_13_"  style="overflow:visible;"/>
			</clipPath>
			<g class="st7">
				<g>
					<path d="M143.3,126.6L133.1,139c-6.3,7.7-17.6,11.8-31.4,12.4l10.2-12.4C125.7,138.4,137,134.3,143.3,126.6"/>
				</g>
			</g>
		</g>
	</g>
	<path class="st8" d="M146.3,90.8c0.4,2,1,5,1.4,8.3c0.4,3.4,0.7,6.9,0.9,8.8c1.5,20-14.3,30-36.7,31.1l-85.6,4L10.2,13.9l81.3-3.8
		c25.9-1.2,38.2,9.9,41,24.2c0.4,2.1,1,5,1.3,8c0.3,2.8,0.5,5.6,0.6,7.4c0.8,10.5-4.3,17.4-14.3,19.7
		C134.4,71.2,143.8,78.9,146.3,90.8z M107.4,101.8c0.1-1.8,0.1-3.6-0.2-5.4c-0.2-1.9-0.7-3.7-1.4-5.5c-2-5.2-5.3-7.6-13.8-7.2
		l-35.4,1.6l3.4,26.9l35.6-1.6C104.4,110.2,107.2,106.7,107.4,101.8 M51.1,41l3.1,24.6L85,64.3c7.6-0.4,10.6-2.5,11.4-6.8
		c0.2-2,0.2-3.9-0.1-5.9c-0.2-2.1-0.7-4.1-1.4-6c-2-4.3-5.9-6.3-13-6L51.1,41"/>
	<path d="M26.3,143l-10.2,12.4L0,26.3l10.2-12.4L26.3,143z"/>
	<path d="M111.9,139l-10.2,12.4l-85.6,4L26.3,143L111.9,139z"/>
</g>
<g>
	<g>
		<path d="M240.4,52.1l-7.7,9.7c-2.4-12.3-11.3-18.9-27.7-17.9l7.7-9.7C229.1,33.2,238,39.8,240.4,52.1z"/>
		<g>
			<defs>
				<path id="SVGID_15_" d="M240.4,52.1l-7.7,9.7c-2.4-12.3-11.3-18.9-27.7-17.9l7.7-9.7C229.1,33.2,238,39.8,240.4,52.1z"/>
			</defs>
			<clipPath id="SVGID_16_">
				<use xlink:href="#SVGID_15_"  style="overflow:visible;"/>
			</clipPath>
			<g class="st9">
				<g>
					<path d="M240.4,52.1l-7.7,9.7c-2.4-12.3-11.3-18.9-27.7-17.9l7.7-9.7C229.1,33.2,238,39.8,240.4,52.1"/>
				</g>
			</g>
		</g>
	</g>
	<path d="M212.7,34.2l-7.7,9.7l-22.7,1.4l7.7-9.7L212.7,34.2z"/>
	<g>
		<path d="M244.7,81.7l-7.7,9.7c-0.2-2.9-1.2-12.1-1.6-14.8c-0.4-2.7-2.3-12.5-2.7-14.8l7.7-9.7c0.5,2.2,2.3,12,2.7,14.8
			C243.5,69.6,244.5,78.8,244.7,81.7z"/>
		<g>
			<defs>
				<path id="SVGID_17_" d="M244.7,81.7l-7.7,9.7c-0.2-2.9-1.2-12.1-1.6-14.8c-0.4-2.7-2.3-12.5-2.7-14.8l7.7-9.7
					c0.5,2.2,2.3,12,2.7,14.8C243.5,69.6,244.5,78.8,244.7,81.7z"/>
			</defs>
			<clipPath id="SVGID_18_">
				<use xlink:href="#SVGID_17_"  style="overflow:visible;"/>
			</clipPath>
			<g class="st10">
				<g>
					<path d="M244.7,81.7l-7.7,9.7c-0.2-2.9-1.2-12.1-1.6-14.8c-0.4-2.7-2.3-12.5-2.7-14.8l7.7-9.7c0.5,2.2,2.3,12,2.7,14.8
						C243.5,69.6,244.5,78.8,244.7,81.7"/>
				</g>
			</g>
		</g>
	</g>
	<g>
		<path d="M241.6,95.9l-7.7,9.7c2.7-3.4,3.7-8.1,3.1-14.2l7.7-9.7C245.3,87.7,244.3,92.4,241.6,95.9z"/>
		<g>
			<defs>
				<path id="SVGID_19_" d="M241.6,95.9l-7.7,9.7c2.7-3.4,3.7-8.1,3.1-14.2l7.7-9.7C245.3,87.7,244.3,92.4,241.6,95.9z"/>
			</defs>
			<clipPath id="SVGID_20_">
				<use xlink:href="#SVGID_19_"  style="overflow:visible;"/>
			</clipPath>
			<g class="st11">
				<g>
					<path d="M241.6,95.9l-7.7,9.7c2.7-3.4,3.7-8.1,3.1-14.2l7.7-9.7C245.3,87.7,244.3,92.4,241.6,95.9"/>
				</g>
			</g>
		</g>
	</g>
	<g>
		<path d="M276.7,114.9l-7.7,9.7c-7.9,9.9-21.5,15.6-39.7,16.8l7.7-9.7C255.2,130.5,268.8,124.8,276.7,114.9z"/>
		<g>
			<defs>
				<path id="SVGID_21_" d="M276.7,114.9l-7.7,9.7c-7.9,9.9-21.5,15.6-39.7,16.8l7.7-9.7C255.2,130.5,268.8,124.8,276.7,114.9z"/>
			</defs>
			<clipPath id="SVGID_22_">
				<use xlink:href="#SVGID_21_"  style="overflow:visible;"/>
			</clipPath>
			<g class="st12">
				<g>
					<path d="M276.7,114.9l-7.7,9.7c-7.9,9.9-21.5,15.6-39.7,16.8l7.7-9.7C255.2,130.5,268.8,124.8,276.7,114.9"/>
				</g>
			</g>
		</g>
	</g>
	<path d="M166.2,136l-7.7,9.7L140.6,18.5l7.7-9.7L166.2,136z"/>
	<path d="M237,131.6l-7.7,9.7l-70.8,4.4l7.7-9.7L237,131.6z"/>
	<path class="st8" d="M278.3,44.2c1.2,6.1,2.5,13.1,3.3,18.6s2.1,17.4,2.5,21.4c3.1,28.8-14.8,45.3-47.1,47.3l-70.8,4.4L148.3,8.8
		l67.9-4.2C251.6,2.4,272.9,17.8,278.3,44.2z M244.7,81.7c-0.2-2.9-1.2-12.1-1.6-14.8s-2.3-12.5-2.7-14.8
		c-2.4-12.3-11.3-18.9-27.7-17.9l-22.7,1.4l9.7,68.8L223,103C239.7,101.9,246,95.2,244.7,81.7"/>
</g>
</svg>
